REM DIRINDEX 1\2,1\3,1\4
REM DIRNAME folder01,folder02,folder03,folder04
TITLE ""
FILE "Track1.mp3" MP3
  TRACK 01 AUDIO
    TITLE "0:"
    INDEX 01 00:00:00
  TRACK 02 AUDIO
    TITLE "4:cjc090_0001"
    INDEX 01 00:00:23
  TRACK 03 AUDIO
    TITLE "0:"
    INDEX 01 00:04:09
  TRACK 04 AUDIO
    TITLE "4:cjc090_0002"
    INDEX 01 00:04:35
  TRACK 05 AUDIO
    TITLE "0:"
    INDEX 01 00:10:29
  TRACK 06 AUDIO
    TITLE "3:cjc090_0003"
    INDEX 01 00:11:27
  TRACK 07 AUDIO
    TITLE "2:cjc090_0004"
    INDEX 01 00:12:52
  TRACK 08 AUDIO
    TITLE "0:"
    INDEX 01 00:14:00
  TRACK 09 AUDIO
    TITLE "3:cjc090_0005"
    INDEX 01 00:14:21
  TRACK 10 AUDIO
    TITLE "2:cjc090_0006"
    INDEX 01 00:15:21
  TRACK 11 AUDIO
    TITLE "0:"
    INDEX 01 00:16:24
  TRACK 12 AUDIO
    TITLE "3:cjc090_0007"
    INDEX 01 00:16:44
  TRACK 13 AUDIO
    TITLE "2:cjc090_0008"
    INDEX 01 00:17:57
  TRACK 14 AUDIO
    TITLE "0:"
    INDEX 01 00:19:09
  TRACK 15 AUDIO
    TITLE "3:cjc090_0009"
    INDEX 01 00:19:32
  TRACK 16 AUDIO
    TITLE "2:cjc090_0010"
    INDEX 01 00:20:30
  TRACK 17 AUDIO
    TITLE "0:"
    INDEX 01 00:22:23
  TRACK 18 AUDIO
    TITLE "3:cjc090_0011"
    INDEX 01 00:22:44
  TRACK 19 AUDIO
    TITLE "2:cjc090_0012"
    INDEX 01 00:23:61
  TRACK 20 AUDIO
    TITLE "0:"
    INDEX 01 00:26:40
  TRACK 21 AUDIO
    TITLE "3:cjc090_0013"
    INDEX 01 00:26:62
  TRACK 22 AUDIO
    TITLE "2:cjc090_0014"
    INDEX 01 00:28:27
  TRACK 23 AUDIO
    TITLE "0:"
    INDEX 01 00:30:22
  TRACK 24 AUDIO
    TITLE "3:cjc090_0015"
    INDEX 01 00:30:44
  TRACK 25 AUDIO
    TITLE "2:cjc090_0016"
    INDEX 01 00:31:41
  TRACK 26 AUDIO
    TITLE "0:"
    INDEX 01 00:32:45
  TRACK 27 AUDIO
    TITLE "3:cjc090_0017"
    INDEX 01 00:32:64
  TRACK 28 AUDIO
    TITLE "2:cjc090_0018"
    INDEX 01 00:33:66
  TRACK 29 AUDIO
    TITLE "0:"
    INDEX 01 00:35:53
  TRACK 30 AUDIO
    TITLE "3:cjc090_0019"
    INDEX 01 00:36:01
  TRACK 31 AUDIO
    TITLE "2:cjc090_0020"
    INDEX 01 00:37:10
  TRACK 32 AUDIO
    TITLE "0:"
    INDEX 01 00:38:53
  TRACK 33 AUDIO
    TITLE "3:cjc090_0021"
    INDEX 01 00:39:00
  TRACK 34 AUDIO
    TITLE "2:cjc090_0022"
    INDEX 01 00:40:01
  TRACK 35 AUDIO
    TITLE "0:"
    INDEX 01 00:41:14
  TRACK 36 AUDIO
    TITLE "3:cjc090_0023"
    INDEX 01 00:41:36
  TRACK 37 AUDIO
    TITLE "2:cjc090_0024"
    INDEX 01 00:42:41
  TRACK 38 AUDIO
    TITLE "0:"
    INDEX 01 00:44:26
  TRACK 39 AUDIO
    TITLE "3:cjc090_0025"
    INDEX 01 00:44:48
  TRACK 40 AUDIO
    TITLE "2:cjc090_0026"
    INDEX 01 00:45:63
  TRACK 41 AUDIO
    TITLE "0:"
    INDEX 01 00:47:05
  TRACK 42 AUDIO
    TITLE "3:cjc090_0027"
    INDEX 01 00:47:27
  TRACK 43 AUDIO
    TITLE "2:cjc090_0028"
    INDEX 01 00:48:22
  TRACK 44 AUDIO
    TITLE "0:"
    INDEX 01 00:49:27
  TRACK 45 AUDIO
    TITLE "3:cjc090_0029"
    INDEX 01 00:49:47
  TRACK 46 AUDIO
    TITLE "2:cjc090_0030"
    INDEX 01 00:50:54
  TRACK 47 AUDIO
    TITLE "0:"
    INDEX 01 00:51:48
  TRACK 48 AUDIO
    TITLE "3:cjc090_0031"
    INDEX 01 00:51:69
  TRACK 49 AUDIO
    TITLE "2:cjc090_0032"
    INDEX 01 00:53:64
  TRACK 50 AUDIO
    TITLE "0:"
    INDEX 01 00:56:08
  TRACK 51 AUDIO
    TITLE "3:cjc090_0033"
    INDEX 01 00:56:29
  TRACK 52 AUDIO
    TITLE "2:cjc090_0034"
    INDEX 01 00:57:50
  TRACK 53 AUDIO
    TITLE "0:"
    INDEX 01 00:59:16
  TRACK 54 AUDIO
    TITLE "3:cjc090_0035"
    INDEX 01 00:59:38
  TRACK 55 AUDIO
    TITLE "2:cjc090_0036"
    INDEX 01 01:00:39
  TRACK 56 AUDIO
    TITLE "0:"
    INDEX 01 01:02:22
  TRACK 57 AUDIO
    TITLE "3:cjc090_0037"
    INDEX 01 01:02:46
  TRACK 58 AUDIO
    TITLE "2:cjc090_0038"
    INDEX 01 01:03:45
  TRACK 59 AUDIO
    TITLE "0:"
    INDEX 01 01:05:36
  TRACK 60 AUDIO
    TITLE "3:cjc090_0039"
    INDEX 01 01:05:58
  TRACK 61 AUDIO
    TITLE "2:cjc090_0040"
    INDEX 01 01:06:57
  TRACK 62 AUDIO
    TITLE "0:"
    INDEX 01 01:07:66
  TRACK 63 AUDIO
    TITLE "3:cjc090_0041"
    INDEX 01 01:08:13
  TRACK 64 AUDIO
    TITLE "2:cjc090_0042"
    INDEX 01 01:09:18
  TRACK 65 AUDIO
    TITLE "0:"
    INDEX 01 01:10:20
  TRACK 66 AUDIO
    TITLE "3:cjc090_0043"
    INDEX 01 01:10:41
  TRACK 67 AUDIO
    TITLE "2:cjc090_0044"
    INDEX 01 01:11:45
  TRACK 68 AUDIO
    TITLE "0:"
    INDEX 01 01:13:14
  TRACK 69 AUDIO
    TITLE "3:cjc090_0045"
    INDEX 01 01:13:34
  TRACK 70 AUDIO
    TITLE "2:cjc090_0046"
    INDEX 01 01:15:39
  TRACK 71 AUDIO
    TITLE "0:"
    INDEX 01 01:17:35
  TRACK 72 AUDIO
    TITLE "3:cjc090_0047"
    INDEX 01 01:17:57
  TRACK 73 AUDIO
    TITLE "2:cjc090_0048"
    INDEX 01 01:18:56
  TRACK 74 AUDIO
    TITLE "0:"
    INDEX 01 01:20:53
  TRACK 75 AUDIO
    TITLE "3:cjc090_0049"
    INDEX 01 01:20:73
  TRACK 76 AUDIO
    TITLE "2:cjc090_0050"
    INDEX 01 01:21:72
  TRACK 77 AUDIO
    TITLE "0:"
    INDEX 01 01:23:01
  TRACK 78 AUDIO
    TITLE "3:cjc090_0051"
    INDEX 01 01:23:22
  TRACK 79 AUDIO
    TITLE "2:cjc090_0052"
    INDEX 01 01:24:18
  TRACK 80 AUDIO
    TITLE "0:"
    INDEX 01 01:25:37
  TRACK 81 AUDIO
    TITLE "3:cjc090_0053"
    INDEX 01 01:25:58
  TRACK 82 AUDIO
    TITLE "2:cjc090_0054"
    INDEX 01 01:26:52
  TRACK 83 AUDIO
    TITLE "0:"
    INDEX 01 01:27:55
  TRACK 84 AUDIO
    TITLE "3:cjc090_0055"
    INDEX 01 01:28:02
  TRACK 85 AUDIO
    TITLE "2:cjc090_0056"
    INDEX 01 01:29:05
  TRACK 86 AUDIO
    TITLE "0:"
    INDEX 01 01:30:66
  TRACK 87 AUDIO
    TITLE "3:cjc090_0057"
    INDEX 01 01:31:12
  TRACK 88 AUDIO
    TITLE "2:cjc090_0058"
    INDEX 01 01:32:17
  TRACK 89 AUDIO
    TITLE "0:"
    INDEX 01 01:33:62
  TRACK 90 AUDIO
    TITLE "3:cjc090_0059"
    INDEX 01 01:34:06
  TRACK 91 AUDIO
    TITLE "2:cjc090_0060"
    INDEX 01 01:35:18
  TRACK 92 AUDIO
    TITLE "0:"
    INDEX 01 01:36:60
  TRACK 93 AUDIO
    TITLE "3:cjc090_0061"
    INDEX 01 01:37:05
  TRACK 94 AUDIO
    TITLE "2:cjc090_0062"
    INDEX 01 01:38:06
  TRACK 95 AUDIO
    TITLE "0:"
    INDEX 01 01:39:31
  TRACK 96 AUDIO
    TITLE "3:cjc090_0063"
    INDEX 01 01:39:51
  TRACK 97 AUDIO
    TITLE "2:cjc090_0064"
    INDEX 01 01:41:01
  TRACK 98 AUDIO
    TITLE "0:"
    INDEX 01 01:42:55
  TRACK 99 AUDIO
    TITLE "3:cjc090_0065"
    INDEX 01 01:43:02
  TRACK 100 AUDIO
    TITLE "2:cjc090_0066"
    INDEX 01 01:44:05
  TRACK 101 AUDIO
    TITLE "0:"
    INDEX 01 01:46:00
  TRACK 102 AUDIO
    TITLE "3:cjc090_0067"
    INDEX 01 01:46:21
  TRACK 103 AUDIO
    TITLE "2:cjc090_0068"
    INDEX 01 01:48:07
  TRACK 104 AUDIO
    TITLE "0:"
    INDEX 01 01:50:06
  TRACK 105 AUDIO
    TITLE "3:cjc090_0069"
    INDEX 01 01:50:27
  TRACK 106 AUDIO
    TITLE "2:cjc090_0070"
    INDEX 01 01:51:30
  TRACK 107 AUDIO
    TITLE "0:"
    INDEX 01 01:52:49
  TRACK 108 AUDIO
    TITLE "3:cjc090_0071"
    INDEX 01 01:52:71
  TRACK 109 AUDIO
    TITLE "2:cjc090_0072"
    INDEX 01 01:54:21
  TRACK 110 AUDIO
    TITLE "0:"
    INDEX 01 01:56:06
  TRACK 111 AUDIO
    TITLE "3:cjc090_0073"
    INDEX 01 01:56:28
  TRACK 112 AUDIO
    TITLE "2:cjc090_0074"
    INDEX 01 01:57:47
  TRACK 113 AUDIO
    TITLE "0:"
    INDEX 01 01:58:58
  TRACK 114 AUDIO
    TITLE "3:cjc090_0075"
    INDEX 01 01:59:03
  TRACK 115 AUDIO
    TITLE "2:cjc090_0076"
    INDEX 01 02:00:20
  TRACK 116 AUDIO
    TITLE "0:"
    INDEX 01 02:02:20
  TRACK 117 AUDIO
    TITLE "3:cjc090_0077"
    INDEX 01 02:02:42
  TRACK 118 AUDIO
    TITLE "2:cjc090_0078"
    INDEX 01 02:03:39
  TRACK 119 AUDIO
    TITLE "0:"
    INDEX 01 02:06:73
  TRACK 120 AUDIO
    TITLE "3:cjc090_0079"
    INDEX 01 02:07:18
  TRACK 121 AUDIO
    TITLE "2:cjc090_0080"
    INDEX 01 02:08:19
  TRACK 122 AUDIO
    TITLE "0:"
    INDEX 01 02:10:40
  TRACK 123 AUDIO
    TITLE "3:cjc090_0081"
    INDEX 01 02:10:61
  TRACK 124 AUDIO
    TITLE "2:cjc090_0082"
    INDEX 01 02:11:59
  TRACK 125 AUDIO
    TITLE "0:"
    INDEX 01 02:13:34
  TRACK 126 AUDIO
    TITLE "3:cjc090_0083"
    INDEX 01 02:13:54
  TRACK 127 AUDIO
    TITLE "2:cjc090_0084"
    INDEX 01 02:15:56
  TRACK 128 AUDIO
    TITLE "0:"
    INDEX 01 02:17:38
  TRACK 129 AUDIO
    TITLE "3:cjc090_0085"
    INDEX 01 02:17:59
  TRACK 130 AUDIO
    TITLE "2:cjc090_0086"
    INDEX 01 02:18:49
  TRACK 131 AUDIO
    TITLE "0:"
    INDEX 01 02:20:26
  TRACK 132 AUDIO
    TITLE "3:cjc090_0087"
    INDEX 01 02:20:48
  TRACK 133 AUDIO
    TITLE "2:cjc090_0088"
    INDEX 01 02:21:57
  TRACK 134 AUDIO
    TITLE "0:"
    INDEX 01 02:23:36
  TRACK 135 AUDIO
    TITLE "3:cjc090_0089"
    INDEX 01 02:23:58
  TRACK 136 AUDIO
    TITLE "2:cjc090_0090"
    INDEX 01 02:24:53
  TRACK 137 AUDIO
    TITLE "0:"
    INDEX 01 02:26:01
  TRACK 138 AUDIO
    TITLE "3:cjc090_0091"
    INDEX 01 02:26:23
  TRACK 139 AUDIO
    TITLE "2:cjc090_0092"
    INDEX 01 02:27:42
  TRACK 140 AUDIO
    TITLE "0:"
    INDEX 01 02:28:55
  TRACK 141 AUDIO
    TITLE "3:cjc090_0093"
    INDEX 01 02:29:00
  TRACK 142 AUDIO
    TITLE "2:cjc090_0094"
    INDEX 01 02:30:19
  TRACK 143 AUDIO
    TITLE "0:"
    INDEX 01 02:31:16
  TRACK 144 AUDIO
    TITLE "3:cjc090_0095"
    INDEX 01 02:31:38
  TRACK 145 AUDIO
    TITLE "2:cjc090_0096"
    INDEX 01 02:32:37
  TRACK 146 AUDIO
    TITLE "0:"
    INDEX 01 02:34:24
  TRACK 147 AUDIO
    TITLE "3:cjc090_0097"
    INDEX 01 02:34:42
  TRACK 148 AUDIO
    TITLE "2:cjc090_0098"
    INDEX 01 02:35:47
  TRACK 149 AUDIO
    TITLE "0:"
    INDEX 01 02:36:51
  TRACK 150 AUDIO
    TITLE "3:cjc090_0099"
    INDEX 01 02:36:70
  TRACK 151 AUDIO
    TITLE "2:cjc090_0100"
    INDEX 01 02:38:24
  TRACK 152 AUDIO
    TITLE "0:"
    INDEX 01 02:39:27
  TRACK 153 AUDIO
    TITLE "3:cjc090_0101"
    INDEX 01 02:39:47
  TRACK 154 AUDIO
    TITLE "2:cjc090_0102"
    INDEX 01 02:41:38
  TRACK 155 AUDIO
    TITLE "0:"
    INDEX 01 02:43:66
  TRACK 156 AUDIO
    TITLE "3:cjc090_0103"
    INDEX 01 02:44:11
  TRACK 157 AUDIO
    TITLE "2:cjc090_0104"
    INDEX 01 02:45:10
  TRACK 158 AUDIO
    TITLE "0:"
    INDEX 01 02:47:39
  TRACK 159 AUDIO
    TITLE "3:cjc090_0105"
    INDEX 01 02:47:58
  TRACK 160 AUDIO
    TITLE "2:cjc090_0106"
    INDEX 01 02:49:63
  TRACK 161 AUDIO
    TITLE "0:"
    INDEX 01 02:51:58
  TRACK 162 AUDIO
    TITLE "3:cjc090_0107"
    INDEX 01 02:52:05
  TRACK 163 AUDIO
    TITLE "2:cjc090_0108"
    INDEX 01 02:53:18
  TRACK 164 AUDIO
    TITLE "0:"
    INDEX 01 02:55:11
  TRACK 165 AUDIO
    TITLE "3:cjc090_0109"
    INDEX 01 02:55:30
  TRACK 166 AUDIO
    TITLE "2:cjc090_0110"
    INDEX 01 02:56:36
  TRACK 167 AUDIO
    TITLE "0:"
    INDEX 01 02:58:52
  TRACK 168 AUDIO
    TITLE "3:cjc090_0111"
    INDEX 01 02:58:72
  TRACK 169 AUDIO
    TITLE "2:cjc090_0112"
    INDEX 01 03:00:02
  TRACK 170 AUDIO
    TITLE "0:"
    INDEX 01 03:01:60
  TRACK 171 AUDIO
    TITLE "3:cjc090_0113"
    INDEX 01 03:02:05
  TRACK 172 AUDIO
    TITLE "2:cjc090_0114"
    INDEX 01 03:03:01
  TRACK 173 AUDIO
    TITLE "0:"
    INDEX 01 03:06:44
  TRACK 174 AUDIO
    TITLE "3:cjc090_0115"
    INDEX 01 03:06:64
  TRACK 175 AUDIO
    TITLE "2:cjc090_0116"
    INDEX 01 03:08:00
  TRACK 176 AUDIO
    TITLE "0:"
    INDEX 01 03:10:40
  TRACK 177 AUDIO
    TITLE "3:cjc090_0117"
    INDEX 01 03:10:61
  TRACK 178 AUDIO
    TITLE "2:cjc090_0118"
    INDEX 01 03:11:61
  TRACK 179 AUDIO
    TITLE "0:"
    INDEX 01 03:14:61
  TRACK 180 AUDIO
    TITLE "3:cjc090_0119"
    INDEX 01 03:15:08
  TRACK 181 AUDIO
    TITLE "2:cjc090_0120"
    INDEX 01 03:15:74
  TRACK 182 AUDIO
    TITLE "0:"
    INDEX 01 03:17:48
  TRACK 183 AUDIO
    TITLE "3:cjc090_0121"
    INDEX 01 03:17:71
  TRACK 184 AUDIO
    TITLE "2:cjc090_0122"
    INDEX 01 03:19:68
  TRACK 185 AUDIO
    TITLE "0:"
    INDEX 01 03:21:65
  TRACK 186 AUDIO
    TITLE "3:cjc090_0123"
    INDEX 01 03:22:10
  TRACK 187 AUDIO
    TITLE "2:cjc090_0124"
    INDEX 01 03:23:13
  TRACK 188 AUDIO
    TITLE "0:"
    INDEX 01 03:26:07
  TRACK 189 AUDIO
    TITLE "3:cjc090_0125"
    INDEX 01 03:26:27
  TRACK 190 AUDIO
    TITLE "2:cjc090_0126"
    INDEX 01 03:27:21
  TRACK 191 AUDIO
    TITLE "0:"
    INDEX 01 03:28:12
  TRACK 192 AUDIO
    TITLE "3:cjc090_0127"
    INDEX 01 03:28:34
  TRACK 193 AUDIO
    TITLE "2:cjc090_0128"
    INDEX 01 03:29:53
  TRACK 194 AUDIO
    TITLE "0:"
    INDEX 01 03:30:56
  TRACK 195 AUDIO
    TITLE "3:cjc090_0129"
    INDEX 01 03:31:01
  TRACK 196 AUDIO
    TITLE "2:cjc090_0130"
    INDEX 01 03:32:12
  TRACK 197 AUDIO
    TITLE "0:"
    INDEX 01 03:33:29
  TRACK 198 AUDIO
    TITLE "3:cjc090_0131"
    INDEX 01 03:33:49
  TRACK 199 AUDIO
    TITLE "2:cjc090_0132"
    INDEX 01 03:34:46
  TRACK 200 AUDIO
    TITLE "0:"
    INDEX 01 03:36:39
  TRACK 201 AUDIO
    TITLE "3:cjc090_0133"
    INDEX 01 03:36:61
  TRACK 202 AUDIO
    TITLE "2:cjc090_0134"
    INDEX 01 03:37:60
  TRACK 203 AUDIO
    TITLE "0:"
    INDEX 01 03:39:47
  TRACK 204 AUDIO
    TITLE "3:cjc090_0135"
    INDEX 01 03:39:69
  TRACK 205 AUDIO
    TITLE "2:cjc090_0136"
    INDEX 01 03:40:68
  TRACK 206 AUDIO
    TITLE "0:"
    INDEX 01 03:43:22
  TRACK 207 AUDIO
    TITLE "3:cjc090_0137"
    INDEX 01 03:43:41
  TRACK 208 AUDIO
    TITLE "2:cjc090_0138"
    INDEX 01 03:45:34
  TRACK 209 AUDIO
    TITLE "0:"
    INDEX 01 03:47:35
  TRACK 210 AUDIO
    TITLE "3:cjc090_0139"
    INDEX 01 03:47:57
  TRACK 211 AUDIO
    TITLE "2:cjc090_0140"
    INDEX 01 03:49:07
  TRACK 212 AUDIO
    TITLE "0:"
    INDEX 01 03:50:65
  TRACK 213 AUDIO
    TITLE "3:cjc090_0141"
    INDEX 01 03:51:11
  TRACK 214 AUDIO
    TITLE "2:cjc090_0142"
    INDEX 01 03:52:15
  TRACK 215 AUDIO
    TITLE "0:"
    INDEX 01 03:53:18
  TRACK 216 AUDIO
    TITLE "3:cjc090_0143"
    INDEX 01 03:53:40
  TRACK 217 AUDIO
    TITLE "2:cjc090_0144"
    INDEX 01 03:54:39
  TRACK 218 AUDIO
    TITLE "0:"
    INDEX 01 03:56:30
  TRACK 219 AUDIO
    TITLE "3:cjc090_0145"
    INDEX 01 03:56:50
  TRACK 220 AUDIO
    TITLE "2:cjc090_0146"
    INDEX 01 03:57:47
  TRACK 221 AUDIO
    TITLE "0:"
    INDEX 01 04:01:08
  TRACK 222 AUDIO
    TITLE "3:cjc090_0147"
    INDEX 01 04:01:31
  TRACK 223 AUDIO
    TITLE "2:cjc090_0148"
    INDEX 01 04:02:44
  TRACK 224 AUDIO
    TITLE "0:"
    INDEX 01 04:05:43
  TRACK 225 AUDIO
    TITLE "3:cjc090_0149"
    INDEX 01 04:05:62
  TRACK 226 AUDIO
    TITLE "2:cjc090_0150"
    INDEX 01 04:07:55
  TRACK 227 AUDIO
    TITLE "0:"
    INDEX 01 04:09:66
  TRACK 228 AUDIO
    TITLE "3:cjc090_0151"
    INDEX 01 04:10:11
  TRACK 229 AUDIO
    TITLE "2:cjc090_0152"
    INDEX 01 04:11:18
  TRACK 230 AUDIO
    TITLE "0:"
    INDEX 01 04:12:29
  TRACK 231 AUDIO
    TITLE "3:cjc090_0153"
    INDEX 01 04:12:49
  TRACK 232 AUDIO
    TITLE "2:cjc090_0154"
    INDEX 01 04:13:52
  TRACK 233 AUDIO
    TITLE "0:"
    INDEX 01 04:14:67
  TRACK 234 AUDIO
    TITLE "3:cjc090_0155"
    INDEX 01 04:15:12
  TRACK 235 AUDIO
    TITLE "2:cjc090_0156"
    INDEX 01 04:16:15
  TRACK 236 AUDIO
    TITLE "0:"
    INDEX 01 04:18:04
  TRACK 237 AUDIO
    TITLE "3:cjc090_0157"
    INDEX 01 04:18:24
  TRACK 238 AUDIO
    TITLE "2:cjc090_0158"
    INDEX 01 04:19:25
  TRACK 239 AUDIO
    TITLE "0:"
    INDEX 01 04:21:07
  TRACK 240 AUDIO
    TITLE "3:cjc090_0159"
    INDEX 01 04:21:26
  TRACK 241 AUDIO
    TITLE "2:cjc090_0160"
    INDEX 01 04:22:37
  TRACK 242 AUDIO
    TITLE "0:"
    INDEX 01 04:23:51
  TRACK 243 AUDIO
    TITLE "3:cjc090_0161"
    INDEX 01 04:23:70
  TRACK 244 AUDIO
    TITLE "2:cjc090_0162"
    INDEX 01 04:24:66
  TRACK 245 AUDIO
    TITLE "0:"
    INDEX 01 04:26:51
  TRACK 246 AUDIO
    TITLE "3:cjc090_0163"
    INDEX 01 04:26:70
  TRACK 247 AUDIO
    TITLE "2:cjc090_0164"
    INDEX 01 04:28:01
  TRACK 248 AUDIO
    TITLE "0:"
    INDEX 01 04:29:59
  TRACK 249 AUDIO
    TITLE "3:cjc090_0165"
    INDEX 01 04:30:04
  TRACK 250 AUDIO
    TITLE "2:cjc090_0166"
    INDEX 01 04:31:07
  TRACK 251 AUDIO
    TITLE "0:"
    INDEX 01 04:32:46
  TRACK 252 AUDIO
    TITLE "3:cjc090_0167"
    INDEX 01 04:32:65
  TRACK 253 AUDIO
    TITLE "2:cjc090_0168"
    INDEX 01 04:33:65
  TRACK 254 AUDIO
    TITLE "0:"
    INDEX 01 04:34:64
  TRACK 255 AUDIO
    TITLE "3:cjc090_0169"
    INDEX 01 04:35:11
  TRACK 256 AUDIO
    TITLE "2:cjc090_0170"
    INDEX 01 04:36:10
  TRACK 257 AUDIO
    TITLE "0:"
    INDEX 01 04:37:02
  TRACK 258 AUDIO
    TITLE "3:cjc090_0171"
    INDEX 01 04:37:23
  TRACK 259 AUDIO
    TITLE "2:cjc090_0172"
    INDEX 01 04:38:27
  TRACK 260 AUDIO
    TITLE "0:"
    INDEX 01 04:39:30
  TRACK 261 AUDIO
    TITLE "3:cjc090_0173"
    INDEX 01 04:39:50
  TRACK 262 AUDIO
    TITLE "2:cjc090_0174"
    INDEX 01 04:41:60
  TRACK 263 AUDIO
    TITLE "0:"
    INDEX 01 04:43:41
  TRACK 264 AUDIO
    TITLE "3:cjc090_0175"
    INDEX 01 04:43:61
  TRACK 265 AUDIO
    TITLE "2:cjc090_0176"
    INDEX 01 04:44:57
  TRACK 266 AUDIO
    TITLE "0:"
    INDEX 01 04:47:43
  TRACK 267 AUDIO
    TITLE "3:cjc090_0177"
    INDEX 01 04:47:63
  TRACK 268 AUDIO
    TITLE "2:cjc090_0178"
    INDEX 01 04:48:68
  TRACK 269 AUDIO
    TITLE "0:"
    INDEX 01 04:50:49
  TRACK 270 AUDIO
    TITLE "3:cjc090_0179"
    INDEX 01 04:50:69
  TRACK 271 AUDIO
    TITLE "2:cjc090_0180"
    INDEX 01 04:52:13
  TRACK 272 AUDIO
    TITLE "0:"
    INDEX 01 04:53:10
  TRACK 273 AUDIO
    TITLE "3:cjc090_0181"
    INDEX 01 04:53:30
  TRACK 274 AUDIO
    TITLE "2:cjc090_0182"
    INDEX 01 04:54:65
  TRACK 275 AUDIO
    TITLE "0:"
    INDEX 01 04:55:70
  TRACK 276 AUDIO
    TITLE "3:cjc090_0183"
    INDEX 01 04:56:17
  TRACK 277 AUDIO
    TITLE "2:cjc090_0184"
    INDEX 01 04:57:32
  TRACK 278 AUDIO
    TITLE "0:"
    INDEX 01 04:59:74
  TRACK 279 AUDIO
    TITLE "3:cjc090_0185"
    INDEX 01 05:00:20
  TRACK 280 AUDIO
    TITLE "2:cjc090_0186"
    INDEX 01 05:01:41
  TRACK 281 AUDIO
    TITLE "0:"
    INDEX 01 05:03:27
  TRACK 282 AUDIO
    TITLE "3:cjc090_0187"
    INDEX 01 05:03:46
  TRACK 283 AUDIO
    TITLE "2:cjc090_0188"
    INDEX 01 05:04:63
  TRACK 284 AUDIO
    TITLE "0:"
    INDEX 01 05:07:30
  TRACK 285 AUDIO
    TITLE "3:cjc090_0189"
    INDEX 01 05:07:48
  TRACK 286 AUDIO
    TITLE "2:cjc090_0190"
    INDEX 01 05:08:53
  TRACK 287 AUDIO
    TITLE "0:"
    INDEX 01 05:10:58
  TRACK 288 AUDIO
    TITLE "3:cjc090_0191"
    INDEX 01 05:11:03
  TRACK 289 AUDIO
    TITLE "2:cjc090_0192"
    INDEX 01 05:12:18
  TRACK 290 AUDIO
    TITLE "0:"
    INDEX 01 05:13:15
  TRACK 291 AUDIO
    TITLE "3:cjc090_0193"
    INDEX 01 05:13:37
  TRACK 292 AUDIO
    TITLE "2:cjc090_0194"
    INDEX 01 05:14:36
  TRACK 293 AUDIO
    TITLE "0:"
    INDEX 01 05:16:29
  TRACK 294 AUDIO
    TITLE "3:cjc090_0195"
    INDEX 01 05:16:47
  TRACK 295 AUDIO
    TITLE "2:cjc090_0196"
    INDEX 01 05:17:64
  TRACK 296 AUDIO
    TITLE "0:"
    INDEX 01 05:19:53
  TRACK 297 AUDIO
    TITLE "3:cjc090_0197"
    INDEX 01 05:19:73
  TRACK 298 AUDIO
    TITLE "2:cjc090_0198"
    INDEX 01 05:20:72
  TRACK 299 AUDIO
    TITLE "0:"
    INDEX 01 05:22:04
  TRACK 300 AUDIO
    TITLE "3:cjc090_0199"
    INDEX 01 05:22:26
  TRACK 301 AUDIO
    TITLE "2:cjc090_0200"
    INDEX 01 05:23:35
  TRACK 302 AUDIO
    TITLE "0:"
    INDEX 01 05:24:48
  TRACK 303 AUDIO
    TITLE "3:cjc090_0201"
    INDEX 01 05:24:70
  TRACK 304 AUDIO
    TITLE "2:cjc090_0202"
    INDEX 01 05:26:08
  TRACK 305 AUDIO
    TITLE "0:"
    INDEX 01 05:27:09
  TRACK 306 AUDIO
    TITLE "3:cjc090_0203"
    INDEX 01 05:27:31
  TRACK 307 AUDIO
    TITLE "2:cjc090_0204"
    INDEX 01 05:28:34
  TRACK 308 AUDIO
    TITLE "0:"
    INDEX 01 05:29:40
  TRACK 309 AUDIO
    TITLE "3:cjc090_0205"
    INDEX 01 05:29:59
  TRACK 310 AUDIO
    TITLE "2:cjc090_0206"
    INDEX 01 05:30:66
  TRACK 311 AUDIO
    TITLE "0:"
    INDEX 01 05:32:14
  TRACK 312 AUDIO
    TITLE "3:cjc090_0207"
    INDEX 01 05:32:34
  TRACK 313 AUDIO
    TITLE "2:cjc090_0208"
    INDEX 01 05:34:45
  TRACK 314 AUDIO
    TITLE "0:"
    INDEX 01 05:36:40
  TRACK 315 AUDIO
    TITLE "3:cjc090_0209"
    INDEX 01 05:36:59
  TRACK 316 AUDIO
    TITLE "2:cjc090_0210"
    INDEX 01 05:38:09
  TRACK 317 AUDIO
    TITLE "0:"
    INDEX 01 05:39:46
  TRACK 318 AUDIO
    TITLE "3:cjc090_0211"
    INDEX 01 05:39:67
  TRACK 319 AUDIO
    TITLE "2:cjc090_0212"
    INDEX 01 05:41:09
  TRACK 320 AUDIO
    TITLE "0:"
    INDEX 01 05:43:44
  TRACK 321 AUDIO
    TITLE "3:cjc090_0213"
    INDEX 01 05:43:65
  TRACK 322 AUDIO
    TITLE "2:cjc090_0214"
    INDEX 01 05:45:09
  TRACK 323 AUDIO
    TITLE "0:"
    INDEX 01 05:48:33
  TRACK 324 AUDIO
    TITLE "3:cjc090_0215"
    INDEX 01 05:48:55
  TRACK 325 AUDIO
    TITLE "2:cjc090_0216"
    INDEX 01 05:50:01
  TRACK 326 AUDIO
    TITLE "0:"
    INDEX 01 05:51:59
  TRACK 327 AUDIO
    TITLE "3:cjc090_0217"
    INDEX 01 05:52:05
  TRACK 328 AUDIO
    TITLE "2:cjc090_0218"
    INDEX 01 05:53:26
  TRACK 329 AUDIO
    TITLE "0:"
    INDEX 01 05:54:36
  TRACK 330 AUDIO
    TITLE "3:cjc090_0219"
    INDEX 01 05:54:59
  TRACK 331 AUDIO
    TITLE "2:cjc090_0220"
    INDEX 01 05:55:55
  TRACK 332 AUDIO
    TITLE "0:"
    INDEX 01 05:56:64
  TRACK 333 AUDIO
    TITLE "3:cjc090_0221"
    INDEX 01 05:57:10
  TRACK 334 AUDIO
    TITLE "2:cjc090_0222"
    INDEX 01 05:58:10
  TRACK 335 AUDIO
    TITLE "0:"
    INDEX 01 06:00:28
  TRACK 336 AUDIO
    TITLE "3:cjc090_0223"
    INDEX 01 06:00:50
  TRACK 337 AUDIO
    TITLE "2:cjc090_0224"
    INDEX 01 06:02:21
  TRACK 338 AUDIO
    TITLE "0:"
    INDEX 01 06:04:09
  TRACK 339 AUDIO
    TITLE "3:cjc090_0225"
    INDEX 01 06:04:28
  TRACK 340 AUDIO
    TITLE "2:cjc090_0226"
    INDEX 01 06:05:30
  TRACK 341 AUDIO
    TITLE "0:"
    INDEX 01 06:07:23
  TRACK 342 AUDIO
    TITLE "3:cjc090_0227"
    INDEX 01 06:07:42
  TRACK 343 AUDIO
    TITLE "2:cjc090_0228"
    INDEX 01 06:08:38
  TRACK 344 AUDIO
    TITLE "0:"
    INDEX 01 06:09:43
  TRACK 345 AUDIO
    TITLE "3:cjc090_0229"
    INDEX 01 06:09:63
  TRACK 346 AUDIO
    TITLE "2:cjc090_0230"
    INDEX 01 06:11:07
  TRACK 347 AUDIO
    TITLE "0:"
    INDEX 01 06:12:69
  TRACK 348 AUDIO
    TITLE "3:cjc090_0231"
    INDEX 01 06:13:17
  TRACK 349 AUDIO
    TITLE "2:cjc090_0232"
    INDEX 01 06:14:15
  TRACK 350 AUDIO
    TITLE "0:"
    INDEX 01 06:16:10
  TRACK 351 AUDIO
    TITLE "3:cjc090_0233"
    INDEX 01 06:16:33
  TRACK 352 AUDIO
    TITLE "2:cjc090_0234"
    INDEX 01 06:17:23
  TRACK 353 AUDIO
    TITLE "0:"
    INDEX 01 06:18:26
  TRACK 354 AUDIO
    TITLE "3:cjc090_0235"
    INDEX 01 06:18:46
  TRACK 355 AUDIO
    TITLE "2:cjc090_0236"
    INDEX 01 06:20:35
  TRACK 356 AUDIO
    TITLE "0:"
    INDEX 01 06:22:12
  TRACK 357 AUDIO
    TITLE "3:cjc090_0237"
    INDEX 01 06:22:34
  TRACK 358 AUDIO
    TITLE "2:cjc090_0238"
    INDEX 01 06:23:39
  TRACK 359 AUDIO
    TITLE "0:"
    INDEX 01 06:25:30
  TRACK 360 AUDIO
    TITLE "3:cjc090_0239"
    INDEX 01 06:25:50
  TRACK 361 AUDIO
    TITLE "2:cjc090_0240"
    INDEX 01 06:27:23
  TRACK 362 AUDIO
    TITLE "0:"
    INDEX 01 06:28:68
  TRACK 363 AUDIO
    TITLE "3:cjc090_0241"
    INDEX 01 06:29:14
  TRACK 364 AUDIO
    TITLE "2:cjc090_0242"
    INDEX 01 06:30:22
  TRACK 365 AUDIO
    TITLE "0:"
    INDEX 01 06:31:70
  TRACK 366 AUDIO
    TITLE "3:cjc090_0243"
    INDEX 01 06:32:15
  TRACK 367 AUDIO
    TITLE "2:cjc090_0244"
    INDEX 01 06:33:16
  TRACK 368 AUDIO
    TITLE "0:"
    INDEX 01 06:35:23
  TRACK 369 AUDIO
    TITLE "3:cjc090_0245"
    INDEX 01 06:35:44
  TRACK 370 AUDIO
    TITLE "2:cjc090_0246"
    INDEX 01 06:37:43
  TRACK 371 AUDIO
    TITLE "0:"
    INDEX 01 06:39:23
  TRACK 372 AUDIO
    TITLE "3:cjc090_0247"
    INDEX 01 06:39:44
  TRACK 373 AUDIO
    TITLE "2:cjc090_0248"
    INDEX 01 06:40:55
  TRACK 374 AUDIO
    TITLE "0:"
    INDEX 01 06:41:61
  TRACK 375 AUDIO
    TITLE "3:cjc090_0249"
    INDEX 01 06:42:05
  TRACK 376 AUDIO
    TITLE "2:cjc090_0250"
    INDEX 01 06:42:74
  TRACK 377 AUDIO
    TITLE "0:"
    INDEX 01 06:45:57
  TRACK 378 AUDIO
    TITLE "3:cjc090_0251"
    INDEX 01 06:46:01
  TRACK 379 AUDIO
    TITLE "2:cjc090_0252"
    INDEX 01 06:47:14
  TRACK 380 AUDIO
    TITLE "0:"
    INDEX 01 06:49:37
  TRACK 381 AUDIO
    TITLE "3:cjc090_0253"
    INDEX 01 06:49:56
  TRACK 382 AUDIO
    TITLE "2:cjc090_0254"
    INDEX 01 06:50:64
  TRACK 383 AUDIO
    TITLE "0:"
    INDEX 01 06:52:66
  TRACK 384 AUDIO
    TITLE "3:cjc090_0255"
    INDEX 01 06:53:11
  TRACK 385 AUDIO
    TITLE "2:cjc090_0256"
    INDEX 01 06:54:71
  TRACK 386 AUDIO
    TITLE "0:"
    INDEX 01 06:56:70
  TRACK 387 AUDIO
    TITLE "3:cjc090_0257"
    INDEX 01 06:57:15
  TRACK 388 AUDIO
    TITLE "2:cjc090_0258"
    INDEX 01 06:58:16
  TRACK 389 AUDIO
    TITLE "0:"
    INDEX 01 07:01:22
  TRACK 390 AUDIO
    TITLE "3:cjc090_0259"
    INDEX 01 07:01:42
  TRACK 391 AUDIO
    TITLE "2:cjc090_0260"
    INDEX 01 07:02:55
  TRACK 392 AUDIO
    TITLE "0:"
    INDEX 01 07:04:01
  TRACK 393 AUDIO
    TITLE "3:cjc090_0261"
    INDEX 01 07:04:21
  TRACK 394 AUDIO
    TITLE "2:cjc090_0262"
    INDEX 01 07:05:51
  TRACK 395 AUDIO
    TITLE "0:"
    INDEX 01 07:07:05
  TRACK 396 AUDIO
    TITLE "3:cjc090_0263"
    INDEX 01 07:07:27
  TRACK 397 AUDIO
    TITLE "2:cjc090_0264"
    INDEX 01 07:08:40
  TRACK 398 AUDIO
    TITLE "0:"
    INDEX 01 07:09:51
  TRACK 399 AUDIO
    TITLE "3:cjc090_0265"
    INDEX 01 07:09:71
  TRACK 400 AUDIO
    TITLE "2:cjc090_0266"
    INDEX 01 07:11:19
  TRACK 401 AUDIO
    TITLE "0:"
    INDEX 01 07:13:39
  TRACK 402 AUDIO
    TITLE "3:cjc090_0267"
    INDEX 01 07:13:59
  TRACK 403 AUDIO
    TITLE "2:cjc090_0268"
    INDEX 01 07:14:68
  TRACK 404 AUDIO
    TITLE "0:"
    INDEX 01 07:16:51
  TRACK 405 AUDIO
    TITLE "3:cjc090_0269"
    INDEX 01 07:16:73
  TRACK 406 AUDIO
    TITLE "2:cjc090_0270"
    INDEX 01 07:17:70
  TRACK 407 AUDIO
    TITLE "0:"
    INDEX 01 07:20:47
  TRACK 408 AUDIO
    TITLE "3:cjc090_0271"
    INDEX 01 07:20:67
  TRACK 409 AUDIO
    TITLE "2:cjc090_0272"
    INDEX 01 07:22:20
  TRACK 410 AUDIO
    TITLE "0:"
    INDEX 01 07:24:15
  TRACK 411 AUDIO
    TITLE "3:cjc090_0273"
    INDEX 01 07:24:35
  TRACK 412 AUDIO
    TITLE "2:cjc090_0274"
    INDEX 01 07:25:48
  TRACK 413 AUDIO
    TITLE "0:"
    INDEX 01 07:29:07
  TRACK 414 AUDIO
    TITLE "3:cjc090_0275"
    INDEX 01 07:29:28
  TRACK 415 AUDIO
    TITLE "2:cjc090_0276"
    INDEX 01 07:30:36
  TRACK 416 AUDIO
    TITLE "0:"
    INDEX 01 07:32:27
  TRACK 417 AUDIO
    TITLE "3:cjc090_0277"
    INDEX 01 07:32:46
  TRACK 418 AUDIO
    TITLE "2:cjc090_0278"
    INDEX 01 07:34:41
  TRACK 419 AUDIO
    TITLE "0:"
    INDEX 01 07:37:04
  TRACK 420 AUDIO
    TITLE "3:cjc090_0279"
    INDEX 01 07:37:24
  TRACK 421 AUDIO
    TITLE "2:cjc090_0280"
    INDEX 01 07:39:19
  TRACK 422 AUDIO
    TITLE "0:"
    INDEX 01 07:41:08
  TRACK 423 AUDIO
    TITLE "3:cjc090_0281"
    INDEX 01 07:41:28
  TRACK 424 AUDIO
    TITLE "2:cjc090_0282"
    INDEX 01 07:42:45
  TRACK 425 AUDIO
    TITLE "0:"
    INDEX 01 07:44:30
  TRACK 426 AUDIO
    TITLE "3:cjc090_0283"
    INDEX 01 07:44:51
  TRACK 427 AUDIO
    TITLE "2:cjc090_0284"
    INDEX 01 07:46:05
  TRACK 428 AUDIO
    TITLE "0:"
    INDEX 01 07:47:65
  TRACK 429 AUDIO
    TITLE "3:cjc090_0285"
    INDEX 01 07:48:10
  TRACK 430 AUDIO
    TITLE "2:cjc090_0286"
    INDEX 01 07:49:21
  TRACK 431 AUDIO
    TITLE "0:"
    INDEX 01 07:51:03
  TRACK 432 AUDIO
    TITLE "3:cjc090_0287"
    INDEX 01 07:51:22
  TRACK 433 AUDIO
    TITLE "2:cjc090_0288"
    INDEX 01 07:52:29
  TRACK 434 AUDIO
    TITLE "0:"
    INDEX 01 07:54:20
  TRACK 435 AUDIO
    TITLE "3:cjc090_0289"
    INDEX 01 07:54:40
  TRACK 436 AUDIO
    TITLE "2:cjc090_0290"
    INDEX 01 07:55:49
  TRACK 437 AUDIO
    TITLE "0:"
    INDEX 01 07:59:14
  TRACK 438 AUDIO
    TITLE "3:cjc090_0291"
    INDEX 01 07:59:35
  TRACK 439 AUDIO
    TITLE "2:cjc090_0292"
    INDEX 01 08:00:39
  TRACK 440 AUDIO
    TITLE "0:"
    INDEX 01 08:02:10
  TRACK 441 AUDIO
    TITLE "3:cjc090_0293"
    INDEX 01 08:02:30
  TRACK 442 AUDIO
    TITLE "2:cjc090_0294"
    INDEX 01 08:03:45
  TRACK 443 AUDIO
    TITLE "0:"
    INDEX 01 08:04:40
  TRACK 444 AUDIO
    TITLE "3:cjc090_0295"
    INDEX 01 08:04:60
  TRACK 445 AUDIO
    TITLE "2:cjc090_0296"
    INDEX 01 08:05:67
  TRACK 446 AUDIO
    TITLE "0:"
    INDEX 01 08:07:60
  TRACK 447 AUDIO
    TITLE "3:cjc090_0297"
    INDEX 01 08:08:03
  TRACK 448 AUDIO
    TITLE "2:cjc090_0298"
    INDEX 01 08:09:06
  TRACK 449 AUDIO
    TITLE "0:"
    INDEX 01 08:10:70
  TRACK 450 AUDIO
    TITLE "3:cjc090_0299"
    INDEX 01 08:11:13
  TRACK 451 AUDIO
    TITLE "2:cjc090_0300"
    INDEX 01 08:12:34
  TRACK 452 AUDIO
    TITLE "0:"
    INDEX 01 08:14:29
  TRACK 453 AUDIO
    TITLE "3:cjc090_0301"
    INDEX 01 08:14:49
  TRACK 454 AUDIO
    TITLE "2:cjc090_0302"
    INDEX 01 08:16:46
  TRACK 455 AUDIO
    TITLE "0:"
    INDEX 01 08:18:44
  TRACK 456 AUDIO
    TITLE "3:cjc090_0303"
    INDEX 01 08:18:64
  TRACK 457 AUDIO
    TITLE "2:cjc090_0304"
    INDEX 01 08:20:71
  TRACK 458 AUDIO
    TITLE "0:"
    INDEX 01 08:22:68
  TRACK 459 AUDIO
    TITLE "3:cjc090_0305"
    INDEX 01 08:23:12
  TRACK 460 AUDIO
    TITLE "2:cjc090_0306"
    INDEX 01 08:24:45
  TRACK 461 AUDIO
    TITLE "0:"
    INDEX 01 08:25:50
  TRACK 462 AUDIO
    TITLE "3:cjc090_0307"
    INDEX 01 08:25:72
  TRACK 463 AUDIO
    TITLE "2:cjc090_0308"
    INDEX 01 08:27:14
  TRACK 464 AUDIO
    TITLE "0:"
    INDEX 01 08:28:19
  TRACK 465 AUDIO
    TITLE "3:cjc090_0309"
    INDEX 01 08:28:39
  TRACK 466 AUDIO
    TITLE "2:cjc090_0310"
    INDEX 01 08:29:46
  TRACK 467 AUDIO
    TITLE "0:"
    INDEX 01 08:30:50
  TRACK 468 AUDIO
    TITLE "3:cjc090_0311"
    INDEX 01 08:30:69
  TRACK 469 AUDIO
    TITLE "2:cjc090_0312"
    INDEX 01 08:31:73
  TRACK 470 AUDIO
    TITLE "0:"
    INDEX 01 08:36:05
  TRACK 471 AUDIO
    TITLE "3:cjc090_0313"
    INDEX 01 08:36:25
  TRACK 472 AUDIO
    TITLE "2:cjc090_0314"
    INDEX 01 08:37:36
  TRACK 473 AUDIO
    TITLE "0:"
    INDEX 01 08:38:59
  TRACK 474 AUDIO
    TITLE "3:cjc090_0315"
    INDEX 01 08:39:05
  TRACK 475 AUDIO
    TITLE "2:cjc090_0316"
    INDEX 01 08:41:04
  TRACK 476 AUDIO
    TITLE "0:"
    INDEX 01 08:43:19
  TRACK 477 AUDIO
    TITLE "3:cjc090_0317"
    INDEX 01 08:43:40
  TRACK 478 AUDIO
    TITLE "2:cjc090_0318"
    INDEX 01 08:44:50
  TRACK 479 AUDIO
    TITLE "0:"
    INDEX 01 08:45:55
  TRACK 480 AUDIO
    TITLE "3:cjc090_0319"
    INDEX 01 08:46:02
  TRACK 481 AUDIO
    TITLE "2:cjc090_0320"
    INDEX 01 08:46:70
  TRACK 482 AUDIO
    TITLE "0:"
    INDEX 01 08:51:42
  TRACK 483 AUDIO
    TITLE "3:cjc090_0321"
    INDEX 01 08:51:65
  TRACK 484 AUDIO
    TITLE "2:cjc090_0322"
    INDEX 01 08:52:61
  TRACK 485 AUDIO
    TITLE "0:"
    INDEX 01 08:56:10
  TRACK 486 AUDIO
    TITLE "3:cjc090_0323"
    INDEX 01 08:56:29
  TRACK 487 AUDIO
    TITLE "2:cjc090_0324"
    INDEX 01 08:57:37
  TRACK 488 AUDIO
    TITLE "0:"
    INDEX 01 08:59:34
  TRACK 489 AUDIO
    TITLE "3:cjc090_0325"
    INDEX 01 08:59:53
  TRACK 490 AUDIO
    TITLE "2:cjc090_0326"
    INDEX 01 09:00:68
  TRACK 491 AUDIO
    TITLE "0:"
    INDEX 01 09:02:24
  TRACK 492 AUDIO
    TITLE "3:cjc090_0327"
    INDEX 01 09:02:44
  TRACK 493 AUDIO
    TITLE "2:cjc090_0328"
    INDEX 01 09:03:49
  TRACK 494 AUDIO
    TITLE "0:"
    INDEX 01 09:05:34
  TRACK 495 AUDIO
    TITLE "3:cjc090_0329"
    INDEX 01 09:05:56
  TRACK 496 AUDIO
    TITLE "2:cjc090_0330"
    INDEX 01 09:06:59
  TRACK 497 AUDIO
    TITLE "0:"
    INDEX 01 09:07:63
  TRACK 498 AUDIO
    TITLE "3:cjc090_0331"
    INDEX 01 09:08:13
  TRACK 499 AUDIO
    TITLE "2:cjc090_0332"
    INDEX 01 09:09:05
  TRACK 500 AUDIO
    TITLE "0:"
    INDEX 01 09:11:27
  TRACK 501 AUDIO
    TITLE "3:cjc090_0333"
    INDEX 01 09:11:47
  TRACK 502 AUDIO
    TITLE "2:cjc090_0334"
    INDEX 01 09:12:46
  TRACK 503 AUDIO
    TITLE "0:"
    INDEX 01 09:14:29
  TRACK 504 AUDIO
    TITLE "3:cjc090_0335"
    INDEX 01 09:14:49
  TRACK 505 AUDIO
    TITLE "2:cjc090_0336"
    INDEX 01 09:15:54
  TRACK 506 AUDIO
    TITLE "0:"
    INDEX 01 09:17:45
  TRACK 507 AUDIO
    TITLE "3:cjc090_0337"
    INDEX 01 09:17:65
  TRACK 508 AUDIO
    TITLE "2:cjc090_0338"
    INDEX 01 09:18:62
  TRACK 509 AUDIO
    TITLE "0:"
    INDEX 01 09:20:04
  TRACK 510 AUDIO
    TITLE "3:cjc090_0339"
    INDEX 01 09:20:24
  TRACK 511 AUDIO
    TITLE "2:cjc090_0340"
    INDEX 01 09:21:43
  TRACK 512 AUDIO
    TITLE "0:"
    INDEX 01 09:23:16
  TRACK 513 AUDIO
    TITLE "3:cjc090_0341"
    INDEX 01 09:23:36
  TRACK 514 AUDIO
    TITLE "2:cjc090_0342"
    INDEX 01 09:24:28
  TRACK 515 AUDIO
    TITLE "0:"
    INDEX 01 09:27:50
  TRACK 516 AUDIO
    TITLE "3:cjc090_0343"
    INDEX 01 09:27:69
  TRACK 517 AUDIO
    TITLE "2:cjc090_0344"
    INDEX 01 09:28:67
  TRACK 518 AUDIO
    TITLE "0:"
    INDEX 01 09:30:38
  TRACK 519 AUDIO
    TITLE "3:cjc090_0345"
    INDEX 01 09:30:58
  TRACK 520 AUDIO
    TITLE "2:cjc090_0346"
    INDEX 01 09:31:55
  TRACK 521 AUDIO
    TITLE "0:"
    INDEX 01 09:32:70
  TRACK 522 AUDIO
    TITLE "3:cjc090_0347"
    INDEX 01 09:33:17
  TRACK 523 AUDIO
    TITLE "2:cjc090_0348"
    INDEX 01 09:34:30
  TRACK 524 AUDIO
    TITLE "0:"
    INDEX 01 09:36:72
  TRACK 525 AUDIO
    TITLE "3:cjc090_0349"
    INDEX 01 09:37:17
  TRACK 526 AUDIO
    TITLE "2:cjc090_0350"
    INDEX 01 09:38:34
  TRACK 527 AUDIO
    TITLE "0:"
    INDEX 01 09:41:24
  TRACK 528 AUDIO
    TITLE "3:cjc090_0351"
    INDEX 01 09:41:42
  TRACK 529 AUDIO
    TITLE "2:cjc090_0352"
    INDEX 01 09:42:57
  TRACK 530 AUDIO
    TITLE "0:"
    INDEX 01 09:43:70
  TRACK 531 AUDIO
    TITLE "3:cjc090_0353"
    INDEX 01 09:44:17
  TRACK 532 AUDIO
    TITLE "2:cjc090_0354"
    INDEX 01 09:45:26
  TRACK 533 AUDIO
    TITLE "0:"
    INDEX 01 09:47:13
  TRACK 534 AUDIO
    TITLE "3:cjc090_0355"
    INDEX 01 09:47:33
  TRACK 535 AUDIO
    TITLE "2:cjc090_0356"
    INDEX 01 09:48:32
  TRACK 536 AUDIO
    TITLE "0:"
    INDEX 01 09:50:07
  TRACK 537 AUDIO
    TITLE "3:cjc090_0357"
    INDEX 01 09:50:27
  TRACK 538 AUDIO
    TITLE "2:cjc090_0358"
    INDEX 01 09:51:36
  TRACK 539 AUDIO
    TITLE "0:"
    INDEX 01 09:53:06
  TRACK 540 AUDIO
    TITLE "3:cjc090_0359"
    INDEX 01 09:53:25
  TRACK 541 AUDIO
    TITLE "2:cjc090_0360"
    INDEX 01 09:54:68
  TRACK 542 AUDIO
    TITLE "0:"
    INDEX 01 09:56:65
  TRACK 543 AUDIO
    TITLE "3:cjc090_0361"
    INDEX 01 09:57:13
  TRACK 544 AUDIO
    TITLE "2:cjc090_0362"
    INDEX 01 09:58:09
  TRACK 545 AUDIO
    TITLE "0:"
    INDEX 01 09:59:53
  TRACK 546 AUDIO
    TITLE "3:cjc090_0363"
    INDEX 01 09:59:73
  TRACK 547 AUDIO
    TITLE "2:cjc090_0364"
    INDEX 01 10:01:03
  TRACK 548 AUDIO
    TITLE "0:"
    INDEX 01 10:01:70
  TRACK 549 AUDIO
    TITLE "3:cjc090_0365"
    INDEX 01 10:02:15
  TRACK 550 AUDIO
    TITLE "2:cjc090_0366"
    INDEX 01 10:03:18
  TRACK 551 AUDIO
    TITLE "0:"
    INDEX 01 10:04:66
  TRACK 552 AUDIO
    TITLE "3:cjc090_0367"
    INDEX 01 10:05:11
  TRACK 553 AUDIO
    TITLE "2:cjc090_0368"
    INDEX 01 10:06:18
  TRACK 554 AUDIO
    TITLE "0:"
    INDEX 01 10:07:26
  TRACK 555 AUDIO
    TITLE "3:cjc090_0369"
    INDEX 01 10:07:45
  TRACK 556 AUDIO
    TITLE "2:cjc090_0370"
    INDEX 01 10:08:70
  TRACK 557 AUDIO
    TITLE "0:"
    INDEX 01 10:10:69
  TRACK 558 AUDIO
    TITLE "3:cjc090_0371"
    INDEX 01 10:11:15
  TRACK 559 AUDIO
    TITLE "2:cjc090_0372"
    INDEX 01 10:12:33
  TRACK 560 AUDIO
    TITLE "0:"
    INDEX 01 10:14:10
  TRACK 561 AUDIO
    TITLE "3:cjc090_0373"
    INDEX 01 10:14:31
  TRACK 562 AUDIO
    TITLE "2:cjc090_0374"
    INDEX 01 10:15:37
  TRACK 563 AUDIO
    TITLE "0:"
    INDEX 01 10:16:34
  TRACK 564 AUDIO
    TITLE "3:cjc090_0375"
    INDEX 01 10:16:54
  TRACK 565 AUDIO
    TITLE "2:cjc090_0376"
    INDEX 01 10:17:73
  TRACK 566 AUDIO
    TITLE "0:"
    INDEX 01 10:19:70
  TRACK 567 AUDIO
    TITLE "3:cjc090_0377"
    INDEX 01 10:20:14
  TRACK 568 AUDIO
    TITLE "2:cjc090_0378"
    INDEX 01 10:21:16
  TRACK 569 AUDIO
    TITLE "0:"
    INDEX 01 10:23:17
  TRACK 570 AUDIO
    TITLE "3:cjc090_0379"
    INDEX 01 10:23:38
  TRACK 571 AUDIO
    TITLE "2:cjc090_0380"
    INDEX 01 10:24:53
  TRACK 572 AUDIO
    TITLE "0:"
    INDEX 01 10:25:57
  TRACK 573 AUDIO
    TITLE "3:cjc090_0381"
    INDEX 01 10:26:01
  TRACK 574 AUDIO
    TITLE "2:cjc090_0382"
    INDEX 01 10:27:07
  TRACK 575 AUDIO
    TITLE "0:"
    INDEX 01 10:28:24
  TRACK 576 AUDIO
    TITLE "3:cjc090_0383"
    INDEX 01 10:28:45
  TRACK 577 AUDIO
    TITLE "2:cjc090_0384"
    INDEX 01 10:29:43
  TRACK 578 AUDIO
    TITLE "0:"
    INDEX 01 10:30:46
  TRACK 579 AUDIO
    TITLE "3:cjc090_0385"
    INDEX 01 10:30:68
  TRACK 580 AUDIO
    TITLE "2:cjc090_0386"
    INDEX 01 10:32:12
  TRACK 581 AUDIO
    TITLE "0:"
    INDEX 01 10:33:41
  TRACK 582 AUDIO
    TITLE "3:cjc090_0387"
    INDEX 01 10:33:62
  TRACK 583 AUDIO
    TITLE "2:cjc090_0388"
    INDEX 01 10:34:73
  TRACK 584 AUDIO
    TITLE "0:"
    INDEX 01 10:37:05
  TRACK 585 AUDIO
    TITLE "3:cjc090_0389"
    INDEX 01 10:37:25
  TRACK 586 AUDIO
    TITLE "2:cjc090_0390"
    INDEX 01 10:38:34
  TRACK 587 AUDIO
    TITLE "0:"
    INDEX 01 10:39:37
  TRACK 588 AUDIO
    TITLE "3:cjc090_0391"
    INDEX 01 10:39:59
  TRACK 589 AUDIO
    TITLE "2:cjc090_0392"
    INDEX 01 10:40:54
  TRACK 590 AUDIO
    TITLE "0:"
    INDEX 01 10:42:45
  TRACK 591 AUDIO
    TITLE "3:cjc090_0393"
    INDEX 01 10:42:65
  TRACK 592 AUDIO
    TITLE "2:cjc090_0394"
    INDEX 01 10:43:70
  TRACK 593 AUDIO
    TITLE "0:"
    INDEX 01 10:45:10
  TRACK 594 AUDIO
    TITLE "3:cjc090_0395"
    INDEX 01 10:45:32
  TRACK 595 AUDIO
    TITLE "2:cjc090_0396"
    INDEX 01 10:46:26
  TRACK 596 AUDIO
    TITLE "0:"
    INDEX 01 10:49:30
  TRACK 597 AUDIO
    TITLE "3:cjc090_0397"
    INDEX 01 10:49:51
  TRACK 598 AUDIO
    TITLE "2:cjc090_0398"
    INDEX 01 10:50:45
  TRACK 599 AUDIO
    TITLE "0:"
    INDEX 01 10:52:40
  TRACK 600 AUDIO
    TITLE "3:cjc090_0399"
    INDEX 01 10:52:63
  TRACK 601 AUDIO
    TITLE "2:cjc090_0400"
    INDEX 01 10:53:61
  TRACK 602 AUDIO
    TITLE "0:"
    INDEX 01 10:55:03
  TRACK 603 AUDIO
    TITLE "3:cjc090_0401"
    INDEX 01 10:55:23
  TRACK 604 AUDIO
    TITLE "2:cjc090_0402"
    INDEX 01 10:56:20
  TRACK 605 AUDIO
    TITLE "0:"
    INDEX 01 10:57:21
  TRACK 606 AUDIO
    TITLE "3:cjc090_0403"
    INDEX 01 10:57:43
  TRACK 607 AUDIO
    TITLE "2:cjc090_0404"
    INDEX 01 10:58:41
  TRACK 608 AUDIO
    TITLE "0:"
    INDEX 01 10:59:40
  TRACK 609 AUDIO
    TITLE "3:cjc090_0405"
    INDEX 01 10:59:62
  TRACK 610 AUDIO
    TITLE "2:cjc090_0406"
    INDEX 01 11:00:57
  TRACK 611 AUDIO
    TITLE "0:"
    INDEX 01 11:01:64
